<svg width="24" height="24" viewBox="0 0 24 24" fill="none" xmlns="http://www.w3.org/2000/svg">
<path d="M4 22H18C18.5304 22 19.0391 21.7893 19.4142 21.4142C19.7893 21.0391 20 20.5304 20 20V7L15 2H6C5.46957 2 4.96086 2.21071 4.58579 2.58579C4.21071 2.96086 4 3.46957 4 4V8" stroke="#707070" stroke-width="2" stroke-linecap="round" stroke-linejoin="round"/>
<path d="M14 2V6C14 6.53043 14.2107 7.03914 14.5858 7.41421C14.9609 7.78929 15.4696 8 16 8H20" stroke="#707070" stroke-width="2" stroke-linecap="round" stroke-linejoin="round"/>
<path d="M9 12H3C2.44772 12 2 12.4477 2 13V17C2 17.5523 2.44772 18 3 18H9C9.55228 18 10 17.5523 10 17V13C10 12.4477 9.55228 12 9 12Z" stroke="#707070" stroke-width="2" stroke-linecap="round" stroke-linejoin="round"/>
<path d="M10 13.8431L13.033 12.0881C13.1311 12.0315 13.2424 12.0018 13.3557 12.002C13.469 12.0021 13.5802 12.032 13.6782 12.0888C13.7763 12.1456 13.8576 12.2271 13.9141 12.3253C13.9706 12.4235 14.0002 12.5348 14 12.6481V17.3521C14.0002 17.4653 13.9706 17.5767 13.9141 17.6748C13.8576 17.773 13.7763 17.8546 13.6782 17.9114C13.5802 17.9681 13.469 17.9981 13.3557 17.9982C13.2424 17.9983 13.1311 17.9686 13.033 17.9121L10 16.1571" stroke="#707070" stroke-width="2" stroke-linecap="round" stroke-linejoin="round"/>
</svg>
